<mxfile host="app.diagrams.net" modified="2022-12-14T21:19:03.681Z" agent="5.0 (Windows NT 10.0; Win64; x64) AppleWebKit/537.36 (KHTML, like Gecko) Chrome/108.0.0.0 Safari/537.36" etag="4z0nc9iX0u1LdA2vhmnC" version="20.6.2" type="github">
  <diagram id="C5RBs43oDa-KdzZeNtuy" name="Page-1">
    <mxGraphModel dx="2338" dy="603" grid="0" gridSize="10" guides="1" tooltips="1" connect="1" arrows="1" fold="1" page="0" pageScale="1" pageWidth="827" pageHeight="1169" math="0" shadow="0">
      <root>
        <mxCell id="WIyWlLk6GJQsqaUBKTNV-0" />
        <mxCell id="WIyWlLk6GJQsqaUBKTNV-1" parent="WIyWlLk6GJQsqaUBKTNV-0" />
        <mxCell id="w24_xTTsymOZ64Kal-NZ-0" value="&amp;lt;&amp;lt;boundary&amp;gt;&amp;gt;&lt;br&gt;AppGUI" style="rounded=0;whiteSpace=wrap;html=1;" parent="WIyWlLk6GJQsqaUBKTNV-1" vertex="1">
          <mxGeometry x="-815.5" y="82" width="163" height="40" as="geometry" />
        </mxCell>
        <mxCell id="w24_xTTsymOZ64Kal-NZ-1" value="X&lt;br&gt;Y" style="rounded=0;whiteSpace=wrap;html=1;align=left;spacingLeft=2;" parent="WIyWlLk6GJQsqaUBKTNV-1" vertex="1">
          <mxGeometry x="-815.5" y="122" width="163" height="40" as="geometry" />
        </mxCell>
        <mxCell id="w24_xTTsymOZ64Kal-NZ-2" value="pressTouch(X, Y)&lt;br&gt;displayHome()&lt;br&gt;displayLogin()&lt;br&gt;displayRegistration()&lt;br&gt;displayTracker()&lt;br&gt;displayGoals()&lt;br&gt;displayRecommendations()&lt;br&gt;displayQuizzes()" style="rounded=0;whiteSpace=wrap;html=1;align=left;spacingLeft=2;" parent="WIyWlLk6GJQsqaUBKTNV-1" vertex="1">
          <mxGeometry x="-815.5" y="162" width="163" height="130" as="geometry" />
        </mxCell>
        <mxCell id="w24_xTTsymOZ64Kal-NZ-3" value="&amp;lt;&amp;lt;control&amp;gt;&amp;gt;&lt;br&gt;LoginManager" style="rounded=0;whiteSpace=wrap;html=1;" parent="WIyWlLk6GJQsqaUBKTNV-1" vertex="1">
          <mxGeometry x="-618" y="82" width="161" height="40" as="geometry" />
        </mxCell>
        <mxCell id="w24_xTTsymOZ64Kal-NZ-4" value="isLoggedIn&lt;br&gt;currentUser" style="rounded=0;whiteSpace=wrap;html=1;align=left;spacingLeft=2;" parent="WIyWlLk6GJQsqaUBKTNV-1" vertex="1">
          <mxGeometry x="-618" y="122" width="161" height="40" as="geometry" />
        </mxCell>
        <mxCell id="w24_xTTsymOZ64Kal-NZ-5" value="login(username, password)&lt;br&gt;validateUser()&lt;br&gt;logout()" style="rounded=0;whiteSpace=wrap;html=1;align=left;spacingLeft=2;" parent="WIyWlLk6GJQsqaUBKTNV-1" vertex="1">
          <mxGeometry x="-618" y="162" width="161" height="50" as="geometry" />
        </mxCell>
        <mxCell id="w24_xTTsymOZ64Kal-NZ-6" value="&amp;lt;&amp;lt;control&amp;gt;&amp;gt;&lt;br&gt;RegistrationManager" style="rounded=0;whiteSpace=wrap;html=1;" parent="WIyWlLk6GJQsqaUBKTNV-1" vertex="1">
          <mxGeometry x="-419" y="82" width="154" height="40" as="geometry" />
        </mxCell>
        <mxCell id="w24_xTTsymOZ64Kal-NZ-7" value="firstName&lt;br&gt;lastName&lt;br&gt;username&lt;br&gt;password&lt;br&gt;dateOfBirth&lt;br&gt;email&lt;br&gt;subscriptionCost()" style="rounded=0;whiteSpace=wrap;html=1;align=left;spacingLeft=2;" parent="WIyWlLk6GJQsqaUBKTNV-1" vertex="1">
          <mxGeometry x="-419" y="122" width="154" height="120" as="geometry" />
        </mxCell>
        <mxCell id="w24_xTTsymOZ64Kal-NZ-8" value="register()&lt;br&gt;processPayment()&lt;br&gt;validateUserCredentials()&lt;br&gt;applyVoucherCodes()" style="rounded=0;whiteSpace=wrap;html=1;align=left;spacingLeft=2;" parent="WIyWlLk6GJQsqaUBKTNV-1" vertex="1">
          <mxGeometry x="-419" y="242" width="154" height="70" as="geometry" />
        </mxCell>
        <mxCell id="w24_xTTsymOZ64Kal-NZ-24" value="&amp;lt;&amp;lt;control&amp;gt;&amp;gt;&lt;br&gt;QuizManager" style="rounded=0;whiteSpace=wrap;html=1;fillColor=default;" parent="WIyWlLk6GJQsqaUBKTNV-1" vertex="1">
          <mxGeometry x="-787" y="333" width="129" height="40" as="geometry" />
        </mxCell>
        <mxCell id="w24_xTTsymOZ64Kal-NZ-25" value="dbURL&lt;br&gt;username&lt;br&gt;password" style="rounded=0;whiteSpace=wrap;html=1;align=left;spacingLeft=2;fillColor=default;" parent="WIyWlLk6GJQsqaUBKTNV-1" vertex="1">
          <mxGeometry x="-787" y="373" width="129" height="50" as="geometry" />
        </mxCell>
        <mxCell id="w24_xTTsymOZ64Kal-NZ-26" value="connectToDB()&lt;br&gt;fetchData()" style="rounded=0;whiteSpace=wrap;html=1;align=left;spacingLeft=2;fillColor=default;" parent="WIyWlLk6GJQsqaUBKTNV-1" vertex="1">
          <mxGeometry x="-787" y="423" width="129" height="50" as="geometry" />
        </mxCell>
        <mxCell id="w24_xTTsymOZ64Kal-NZ-27" value="&amp;lt;&amp;lt;control&amp;gt;&amp;gt;&lt;br&gt;RecommendationManager" style="rounded=0;whiteSpace=wrap;html=1;fillColor=default;" parent="WIyWlLk6GJQsqaUBKTNV-1" vertex="1">
          <mxGeometry x="-623" y="333" width="171" height="40" as="geometry" />
        </mxCell>
        <mxCell id="w24_xTTsymOZ64Kal-NZ-28" value="dbURL&lt;br&gt;username&lt;br&gt;password" style="rounded=0;whiteSpace=wrap;html=1;align=left;spacingLeft=2;fillColor=default;" parent="WIyWlLk6GJQsqaUBKTNV-1" vertex="1">
          <mxGeometry x="-623" y="373" width="171" height="50" as="geometry" />
        </mxCell>
        <mxCell id="w24_xTTsymOZ64Kal-NZ-29" value="connectToDB()&lt;br&gt;fetchData()" style="rounded=0;whiteSpace=wrap;html=1;align=left;spacingLeft=2;fillColor=default;" parent="WIyWlLk6GJQsqaUBKTNV-1" vertex="1">
          <mxGeometry x="-623" y="423" width="171" height="50" as="geometry" />
        </mxCell>
        <mxCell id="w24_xTTsymOZ64Kal-NZ-30" value="&amp;lt;&amp;lt;control&amp;gt;&amp;gt;&lt;br&gt;GoalManager" style="rounded=0;whiteSpace=wrap;html=1;fillColor=default;" parent="WIyWlLk6GJQsqaUBKTNV-1" vertex="1">
          <mxGeometry x="-419" y="333" width="134" height="40" as="geometry" />
        </mxCell>
        <mxCell id="w24_xTTsymOZ64Kal-NZ-31" value="dbURL&lt;br&gt;username&lt;br&gt;password" style="rounded=0;whiteSpace=wrap;html=1;align=left;spacingLeft=2;fillColor=default;" parent="WIyWlLk6GJQsqaUBKTNV-1" vertex="1">
          <mxGeometry x="-419" y="373" width="134" height="50" as="geometry" />
        </mxCell>
        <mxCell id="w24_xTTsymOZ64Kal-NZ-32" value="connectToDB()&lt;br&gt;fetchData()" style="rounded=0;whiteSpace=wrap;html=1;align=left;spacingLeft=2;fillColor=default;" parent="WIyWlLk6GJQsqaUBKTNV-1" vertex="1">
          <mxGeometry x="-419" y="423" width="134" height="50" as="geometry" />
        </mxCell>
      </root>
    </mxGraphModel>
  </diagram>
</mxfile>
